<?xml version="1.0" standalone="no"?>
<!DOCTYPE svg PUBLIC "-//W3C//DTD SVG 20010904//EN"
 "http://www.w3.org/TR/2001/REC-SVG-20010904/DTD/svg10.dtd">
<svg version="1.0" xmlns="http://www.w3.org/2000/svg"
 width="260.000000pt" height="260.000000pt" viewBox="0 0 260.000000 260.000000"
 preserveAspectRatio="xMidYMid meet">
<metadata>
Created by potrace 1.11, written by Peter Selinger 2001-2013
</metadata>
<g transform="translate(0.000000,260.000000) scale(0.100000,-0.100000)"
fill="#000000" stroke="none">
<path d="M0 1300 l0 -1300 1300 0 1300 0 0 1300 0 1300 -1300 0 -1300 0 0
-1300z m1230 719 c103 -17 205 -84 292 -190 l47 -57 43 9 c75 14 141 10 181
-11 20 -11 43 -20 51 -20 22 0 95 -94 102 -131 9 -46 48 -86 92 -94 87 -16
194 -110 244 -215 27 -55 32 -77 32 -145 2 -151 -60 -259 -185 -320 -111 -55
-102 -55 -809 -55 -426 0 -669 4 -695 11 -67 17 -161 67 -198 105 -19 20 -45
57 -58 82 -21 42 -24 60 -24 167 0 105 3 125 22 162 46 86 86 133 146 175 60
42 62 45 73 103 29 157 92 264 198 339 131 92 263 117 446 85z"/>
</g>
</svg>
